<svg width="20" height="20" viewBox="0 0 20 20" fill="none" xmlns="http://www.w3.org/2000/svg">
<g id="Comment Icon">
<path id="Vector" d="M2.69231 3.04603V2.96306C2.69231 2.17721 3.01648 1.42354 3.59352 0.86786C4.17055 0.312179 4.95318 0 5.76923 0H15C16.3261 0 17.5979 0.50729 18.5355 1.41027C19.4732 2.31326 20 3.53796 20 4.81497V10.3707C20 11.1566 19.6758 11.9102 19.0988 12.4659C18.5218 13.0216 17.7391 13.3338 16.9231 13.3338V13.7042C16.9231 14.5882 16.5584 15.4361 15.9092 16.0613C15.2601 16.6864 14.3796 17.0376 13.4615 17.0376H9.12308L5.73615 19.7414C4.98462 20.3429 3.84615 19.8281 3.84615 18.8873V17.0376H3.07692C2.26087 17.0376 1.47824 16.7254 0.90121 16.1697C0.324175 15.6141 0 14.8604 0 14.0745V6.2965C0.000187707 5.54117 0.26664 4.80826 0.755741 4.21776C1.24484 3.62726 1.92762 3.21414 2.69231 3.04603ZM4.23077 2.96306H13.4615C14.3796 2.96306 15.2601 3.31426 15.9092 3.9394C16.5584 4.56455 16.9231 5.41242 16.9231 6.2965V11.8522C17.3311 11.8522 17.7224 11.6962 18.0109 11.4183C18.2995 11.1405 18.4615 10.7636 18.4615 10.3707V4.81497C18.4615 3.93089 18.0968 3.08301 17.4477 2.45787C16.7985 1.83273 15.9181 1.48153 15 1.48153H5.76923C5.36121 1.48153 4.96989 1.63762 4.68137 1.91546C4.39286 2.1933 4.23077 2.57013 4.23077 2.96306ZM3.46154 4.44459C2.95151 4.44459 2.46236 4.6397 2.10172 4.987C1.74107 5.3343 1.53846 5.80535 1.53846 6.2965V14.0745C1.53846 14.4675 1.70055 14.8443 1.98907 15.1221C2.27758 15.4 2.6689 15.5561 3.07692 15.5561H4.61538C4.8194 15.5561 5.01505 15.6341 5.15931 15.773C5.30357 15.912 5.38462 16.1004 5.38462 16.2968V18.0984L8.35538 15.7264C8.49337 15.6163 8.66695 15.5561 8.84615 15.5561H13.4615C13.7141 15.5561 13.9642 15.5082 14.1975 15.4151C14.4308 15.322 14.6428 15.1856 14.8214 15.0137C14.9999 14.8417 15.1416 14.6375 15.2382 14.4128C15.3349 14.1882 15.3846 13.9473 15.3846 13.7042V6.2965C15.3846 5.80535 15.182 5.3343 14.8214 4.987C14.4607 4.6397 13.9716 4.44459 13.4615 4.44459H3.46154Z" fill="#161616"/>
</g>
</svg>
