<svg width="20" height="20" viewBox="0 0 20 20" fill="none" xmlns="http://www.w3.org/2000/svg">
<g id="Like Icon">
<path id="Vector" d="M2 19.5L15.307 19.5C15.7139 19.4986 16.1108 19.3738 16.4452 19.1421C16.7796 18.9103 17.0359 18.5825 17.18 18.202L19.937 10.851C19.9789 10.7387 20.0002 10.6198 20 10.5V8.5C20 7.397 19.103 6.5 18 6.5L12.388 6.5L13.51 3.133C13.61 2.83236 13.6374 2.51229 13.5897 2.19905C13.5421 1.8858 13.4209 1.58832 13.236 1.331C12.86 0.810999 12.254 0.5 11.612 0.5H10C9.703 0.5 9.422 0.632 9.231 0.860001L4.531 6.5H2C0.896997 6.5 -1.90735e-06 7.397 -1.90735e-06 8.5V17.5C-1.90735e-06 18.603 0.896997 19.5 2 19.5ZM10.469 2.5H11.614L10.052 7.184C10.002 7.33425 9.98831 7.49424 10.0122 7.6508C10.0361 7.80735 10.0968 7.956 10.1894 8.0845C10.2819 8.213 10.4037 8.31767 10.5446 8.38991C10.6856 8.46215 10.8416 8.49988 11 8.5L18 8.5V10.319L15.307 17.5H6L6 7.862L10.469 2.5ZM4 8.5V17.5L2 17.5L1.999 8.5H4Z" fill="#161616"/>
</g>
</svg>
