<svg width="47" height="24" viewBox="0 0 47 24" fill="none" xmlns="http://www.w3.org/2000/svg">
<path id="Menu icon" d="M43.2996 19.7647C44.2499 19.765 45.1636 19.9745 45.8513 20.3498C46.5391 20.725 46.9482 21.2374 46.9938 21.7806C47.0395 22.3238 46.7183 22.8562 46.0966 23.2676C45.475 23.6789 44.6007 23.9376 43.6548 23.9901L43.2996 24H3.82925C2.87896 23.9997 1.96528 23.7902 1.27753 23.415C0.589776 23.0397 0.180681 22.5273 0.135014 21.9841C0.0893459 21.4409 0.410606 20.9085 1.03222 20.4971C1.65384 20.0858 2.52816 19.8271 3.47402 19.7746L3.82925 19.7647H43.2996ZM43.2996 9.88235C44.281 9.88235 45.2222 10.1055 45.9161 10.5026C46.6101 10.8997 47 11.4384 47 12C47 12.5616 46.6101 13.1003 45.9161 13.4974C45.2222 13.8945 44.281 14.1176 43.2996 14.1176H3.82925C2.84786 14.1176 1.90666 13.8945 1.21271 13.4974C0.518763 13.1003 0.128906 12.5616 0.128906 12C0.128906 11.4384 0.518763 10.8997 1.21271 10.5026C1.90666 10.1055 2.84786 9.88235 3.82925 9.88235H43.2996ZM43.2996 0C44.281 0 45.2222 0.223109 45.9161 0.620245C46.6101 1.01738 47 1.55601 47 2.11765C47 2.67928 46.6101 3.21791 45.9161 3.61505C45.2222 4.01219 44.281 4.23529 43.2996 4.23529H3.82925C2.84786 4.23529 1.90666 4.01219 1.21271 3.61505C0.518763 3.21791 0.128906 2.67928 0.128906 2.11765C0.128906 1.55601 0.518763 1.01738 1.21271 0.620245C1.90666 0.223109 2.84786 0 3.82925 0H43.2996Z" fill="black"/>
</svg>
