<svg width="20" height="20" viewBox="0 0 20 20" fill="none" xmlns="http://www.w3.org/2000/svg">
<g id="Share Icon">
<path id="Vector" d="M16.2623 19.9998C15.7022 20.0059 15.1481 19.8889 14.6436 19.6578C14.139 19.4267 13.6975 19.0878 13.3537 18.6676C13.0099 18.2474 12.7731 17.7574 12.6619 17.2358C12.5506 16.7142 12.5679 16.1753 12.7123 15.6611L6.14328 12.0941C5.58914 12.5764 4.89236 12.8853 4.14731 12.9789C3.40225 13.0726 2.64491 12.9464 1.97782 12.6176C1.31072 12.2887 0.766116 11.7731 0.417733 11.1404C0.0693495 10.5078 -0.0659796 9.78868 0.0300698 9.08054C0.126119 8.37239 0.448907 7.7094 0.954727 7.18132C1.46055 6.65324 2.12496 6.28559 2.85801 6.12815C3.59106 5.97072 4.35733 6.03109 5.05306 6.30111C5.74879 6.57113 6.34038 7.03774 6.74771 7.63777L12.7113 4.39873C12.6341 4.12176 12.5932 3.83681 12.5895 3.55033C12.5822 2.74105 12.8687 1.9541 13.4006 1.32198C13.9326 0.689863 14.6776 0.25119 15.5101 0.0798236C16.3427 -0.0915424 17.212 0.0148669 17.9716 0.381134C18.7312 0.747402 19.3348 1.35116 19.6808 2.09074C20.0267 2.83032 20.0938 3.66055 19.8708 4.44164C19.6478 5.22273 19.1483 5.90697 18.4565 6.37914C17.7646 6.85132 16.9226 7.08259 16.0723 7.03402C15.222 6.98544 14.4152 6.65999 13.7879 6.11246L7.33431 9.61669C7.32696 9.87589 7.28919 10.1321 7.21993 10.3823L13.7889 13.9484C14.2286 13.565 14.7601 13.2894 15.3373 13.1454C15.9145 13.0015 16.5199 12.9934 17.1011 13.1221C17.6823 13.2508 18.2216 13.5122 18.6723 13.8838C19.1231 14.2553 19.4716 14.7258 19.6876 15.2543C19.9036 15.7828 19.9806 16.3533 19.9119 16.9165C19.8432 17.4797 19.6309 18.0184 19.2934 18.486C18.9559 18.9535 18.5035 19.3358 17.9753 19.5996C17.447 19.8634 16.859 20.0008 16.2623 19.9998ZM16.2623 15.0151C15.8448 15.0151 15.4445 15.1726 15.1493 15.4531C14.8541 15.7335 14.6883 16.1139 14.6883 16.5105C14.6883 16.9071 14.8541 17.2875 15.1493 17.5679C15.4445 17.8483 15.8448 18.0059 16.2623 18.0059C16.6798 18.0059 17.0801 17.8483 17.3753 17.5679C17.6705 17.2875 17.8363 16.9071 17.8363 16.5105C17.8363 16.1139 17.6705 15.7335 17.3753 15.4531C17.0801 15.1726 16.6798 15.0151 16.2623 15.0151ZM3.66993 8.03654C3.25247 8.03654 2.8521 8.19409 2.55691 8.47454C2.26172 8.75498 2.09588 9.13534 2.09588 9.53195C2.09588 9.92855 2.26172 10.3089 2.55691 10.5894C2.8521 10.8698 3.25247 11.0274 3.66993 11.0274C4.08739 11.0274 4.48776 10.8698 4.78295 10.5894C5.07814 10.3089 5.24397 9.92855 5.24397 9.53195C5.24397 9.13534 5.07814 8.75498 4.78295 8.47454C4.48776 8.19409 4.08739 8.03654 3.66993 8.03654ZM16.2623 2.05493C16.0556 2.05493 15.8509 2.09361 15.6599 2.16876C15.469 2.24391 15.2954 2.35406 15.1493 2.49292C15.0031 2.63178 14.8872 2.79664 14.8081 2.97807C14.729 3.1595 14.6883 3.35395 14.6883 3.55033C14.6883 3.74671 14.729 3.94117 14.8081 4.1226C14.8872 4.30403 15.0031 4.46888 15.1493 4.60774C15.2954 4.7466 15.469 4.85675 15.6599 4.93191C15.8509 5.00706 16.0556 5.04574 16.2623 5.04574C16.6798 5.04574 17.0801 4.88819 17.3753 4.60774C17.6705 4.3273 17.8363 3.94694 17.8363 3.55033C17.8363 3.15373 17.6705 2.77337 17.3753 2.49292C17.0801 2.21248 16.6798 2.05493 16.2623 2.05493Z" fill="#161616"/>
</g>
</svg>
