<svg width="18" height="16" viewBox="0 0 18 16" fill="none" xmlns="http://www.w3.org/2000/svg">
<path id="Vector" d="M15.3741 4.54758V5.00987C15.3741 9.66514 12.0703 15 6.02487 15C4.24019 15.0041 2.49342 14.4497 1 13.4051C1.25936 13.4427 1.52098 13.4597 1.7827 13.4559C3.26206 13.4603 4.69981 12.9327 5.86486 11.9581C5.17759 11.9473 4.51099 11.7051 3.95981 11.2661C3.40863 10.8271 3.00091 10.2135 2.79459 9.51258C2.99931 9.55898 3.20803 9.58222 3.4173 9.58193C3.70952 9.582 4.00042 9.54001 4.28216 9.45711C3.53776 9.29847 2.86807 8.86821 2.38767 8.23995C1.90728 7.61169 1.64603 6.82449 1.64865 6.01304V5.96681C2.10409 6.23879 2.61469 6.38795 3.13622 6.40137C2.44199 5.91299 1.9484 5.15964 1.75631 4.29526C1.56422 3.43088 1.68812 2.52071 2.1027 1.75072C2.92876 2.83687 3.95939 3.72501 5.12759 4.3574C6.29579 4.9898 7.5754 5.35229 8.88324 5.42131C8.8185 5.15892 8.78795 4.88824 8.79243 4.61692C8.76808 3.89987 8.95105 3.19221 9.31641 2.59031C9.68178 1.98841 10.2118 1.52152 10.8343 1.25321C11.4568 0.984899 12.1415 0.928206 12.7952 1.09085C13.4489 1.2535 14.0399 1.62758 14.4876 2.16216C15.2235 2.00339 15.9294 1.71434 16.5762 1.30692C16.3309 2.13505 15.8091 2.83771 15.1103 3.2809C15.7631 3.18474 16.3995 2.98856 17 2.69842C16.5648 3.41295 16.0143 4.03908 15.3741 4.54758V4.54758Z" stroke="#252525" stroke-linecap="round" stroke-linejoin="round"/>
</svg>
